Coordinates
version=1
nRows=19
nColumns=24
inDegrees=yes

Units are S.I. units (second, meters, Newtons, ...)
Angles are in degrees.

endheader
time	pelvis_tilt	pelvis_list	pelvis_rotation	pelvis_tx	pelvis_ty	pelvis_tz	hip_flexion_r	hip_adduction_r	hip_rotation_r	knee_angle_r	ankle_angle_r	subtalar_angle_r	mtp_angle_r	hip_flexion_l	hip_adduction_l	hip_rotation_l	knee_angle_l	ankle_angle_l	subtalar_angle_l	mtp_angle_l	lumbar_extension	lumbar_bending	lumbar_rotation
      1.18733333	      5.35377510	      4.53711197	     -4.94839743	      0.12140421	      1.02599472	      0.24541351	      9.24741321	     -5.00867973	     -1.80394264	    -62.92546305	      5.63590104	    -21.23093198	      0.06922563	      3.20751948	      7.62254950	     -0.65646110	    -11.61592314	      3.96677496	    -12.69449840	      3.74851029	     -8.09266713	     -6.47043019	      6.80705369
      1.19150000	      5.32538299	      4.39733453	     -4.91175765	      0.12633195	      1.02674298	      0.24521151	      9.74064967	     -4.80344178	     -1.80130001	    -62.43907310	      5.78864978	    -21.31943356	     -0.00974990	      2.74378729	      7.52872973	     -0.44896528	    -11.28295417	      4.02647614	    -12.85616027	      3.70005873	     -8.13051081	     -6.32603160	      6.51269209
      1.19566667	      5.29857705	      4.26091776	     -4.88823605	      0.13125759	      1.02745847	      0.24506477	     10.22085208	     -4.59342085	     -1.77435954	    -61.89118859	      5.99323356	    -21.31168362	     -0.06864643	      2.28765474	      7.42702175	     -0.31401980	    -10.96689310	      4.09092333	    -12.93512476	      3.65385883	     -8.16412783	     -6.20113663	      6.33036316
      1.19983333	      5.25931841	      4.12318573	     -4.85049616	      0.13620393	      1.02812855	      0.24489011	     10.69666995	     -4.38640784	     -1.76873375	    -61.27969000	      6.16784136	    -21.28970694	     -0.12416543	      1.83740227	      7.32284596	     -0.17446542	    -10.63625356	      4.16621577	    -13.01524882	      3.59947869	     -8.17710843	     -6.05756726	      6.11466029
      1.20400000	      5.22101637	      3.98818870	     -4.81216062	      0.14115498	      1.02877750	      0.24474658	     11.15384143	     -4.17527674	     -1.75288466	    -60.60188919	      6.33457314	    -21.22624049	     -0.17180217	      1.38490151	      7.21752197	     -0.03475852	    -10.30358105	      4.23057276	    -13.08731996	      3.53642671	     -8.19379776	     -5.92756892	      5.89988204
      1.20816667	      5.15778772	      3.84652403	     -4.77961995	      0.14611471	      1.02936690	      0.24463323	     11.62283793	     -3.94724130	     -1.72239606	    -59.86279114	      6.48537698	    -21.13304802	     -0.18159331	      0.96910107	      7.09373364	      0.03348634	     -9.99077250	      4.30494798	    -13.07497363	      3.51485695	     -8.17866903	     -5.78051841	      5.79073917
      1.21233333	      5.15084005	      3.71472928	     -4.71605313	      0.15107114	      1.03000917	      0.24447980	     12.00425464	     -3.74803757	     -1.73492993	    -59.05613176	      6.59876920	    -21.00225147	     -0.20029294	      0.47238165	      6.99204950	      0.21042861	     -9.63614801	      4.38381679	    -13.16090519	      3.45811392	     -8.23193723	     -5.65704252	      5.49104369
      1.21650000	      5.11241464	      3.59014666	     -4.66432915	      0.15601729	      1.03054455	      0.24435814	     12.41539737	     -3.54487435	     -1.71920315	    -58.21217680	      6.71710565	    -20.85302875	     -0.21087974	      0.01439671	      6.89120966	      0.35493184	     -9.28518309	      4.43123597	    -13.23156197	      3.38435573	     -8.25566231	     -5.54028907	      5.24758880
      1.22066667	      5.06533586	      3.45845102	     -4.60097950	      0.16099513	      1.03104034	      0.24423165	     12.81145493	     -3.33618911	     -1.71831440	    -57.30542144	      6.79523972	    -20.69386096	     -0.20995237	     -0.43020646	      6.77689619	      0.47582234	     -8.94855820	      4.51398195	    -13.25739611	      3.32214911	     -8.25819659	     -5.40747178	      5.04090505
      1.22483333	      5.04031465	      3.33160448	     -4.53425492	      0.16596474	      1.03154378	      0.24412108	     13.16536550	     -3.13388776	     -1.71830165	    -56.34399101	      6.85498979	    -20.52056815	     -0.20031889	     -0.90382492	      6.66663473	      0.60185599	     -8.59690112	      4.58202312	    -13.28262695	      3.25890760	     -8.29154604	     -5.28527444	      4.80610364
      1.22900000	      4.95855612	      3.20314711	     -4.47324386	      0.17095080	      1.03191390	      0.24403799	     13.56850816	     -2.91981472	     -1.70295483	    -55.34033857	      6.89540945	    -20.33171834	     -0.19143540	     -1.30221527	      6.54385682	      0.67280511	     -8.27357812	      4.64726640	    -13.25876449	      3.23137378	     -8.25111324	     -5.15570072	      4.66888690
      1.23316667	      4.94357933	      3.09915624	     -4.39031251	      0.17592683	      1.03232309	      0.24391561	     13.88298779	     -2.75267978	     -1.72158221	    -54.29735857	      6.90854158	    -20.15644212	     -0.16749640	     -1.79142332	      6.45776504	      0.83517624	     -7.90821090	      4.73203427	    -13.31362260	      3.16858314	     -8.29631125	     -5.05837188	      4.33563595
      1.23733333	      4.86672710	      2.98697243	     -4.32362356	      0.18091513	      1.03261166	      0.24384241	     14.25115823	     -2.55925763	     -1.70621695	    -53.21020206	      6.90549502	    -19.95592078	     -0.15271897	     -2.19509085	      6.34972068	      0.90754762	     -7.57962203	      4.78615058	    -13.29033788	      3.13989713	     -8.26220846	     -4.94875605	      4.19052330
      1.24150000	      4.82016890	      2.86721839	     -4.23728398	      0.18590055	      1.03290705	      0.24374425	     14.56050840	     -2.37021826	     -1.71959121	    -52.06820211	      6.86898056	    -19.77158758	     -0.13409685	     -2.63565170	      6.23444136	      1.01537863	     -7.24439636	      4.86372464	    -13.28718125	      3.10759286	     -8.27019387	     -4.83005630	      3.96910146
      1.24566667	      4.82106490	      2.77436727	     -4.14913820	      0.19087559	      1.03319851	      0.24365454	     14.81158842	     -2.21783351	     -1.73745482	    -50.90502343	      6.80457669	    -19.64072402	     -0.09404517	     -3.14707822	      6.15422991	      1.18463199	     -6.86292944	      4.94568539	    -13.34426105	      3.04402410	     -8.33837475	     -4.75047793	      3.59868069
      1.24983333	      4.72858889	      2.67856244	     -4.07125453	      0.19587465	      1.03331885	      0.24358766	     15.15028256	     -2.05143127	     -1.73495345	    -49.70526059	      6.74160311	    -19.43859645	     -0.07213220	     -3.52676202	      6.05668908	      1.25601655	     -6.54365506	      5.00266027	    -13.32456170	      3.01421385	     -8.28321268	     -4.65557822	      3.44410351
      1.25400000	      4.70312722	      2.59659333	     -3.98013922	      0.20085367	      1.03347418	      0.24351157	     15.40126764	     -1.91211673	     -1.75064829	    -48.47387931	      6.63313168	    -19.32354194	     -0.02119488	     -4.00037372	      5.98081400	      1.41338332	     -6.17827729	      5.08603676	    -13.37006578	      2.94877171	     -8.31985334	     -4.58786878	      3.09139739
      1.25816667	      4.64961722	      2.51394355	     -3.89223573	      0.20584530	      1.03356352	      0.24345107	     15.66439445	     -1.77042961	     -1.76052516	    -47.20247032	      6.51632664	    -19.17918338	      0.03463215	     -4.43170014	      5.89786871	      1.53072683	     -5.83609657	      5.15042513	    -13.38999410	      2.88318001	     -8.31589075	     -4.51235866	      2.83638687
      1.26233333	      4.60562773	      2.42701677	     -3.80228006	      0.21084153	      1.03362115	      0.24339419	     15.89817894	     -1.62823473	     -1.77698036	    -45.89424490	      6.37893199	    -19.05115793	      0.08653525	     -4.87072562	      5.80798884	      1.63732351	     -5.50059814	      5.23054880	    -13.38704746	      2.82712159	     -8.32527659	     -4.43359528	      2.59617273
